<?xml version="1.0" encoding="iso-8859-1"?>
<!-- Generator: Adobe Illustrator 19.0.0, SVG Export Plug-In . SVG Version: 6.00 Build 0)  -->
<svg version="1.1" id="Layer_1" fill='#fffddf' xmlns="http://www.w3.org/2000/svg" xmlns:xlink="http://www.w3.org/1999/xlink" x="0px" y="0px"
	 viewBox="0 0 505.584 505.584" style="enable-background:new 0 0 505.584 505.584;" xml:space="preserve">
<g>
	<g>
		<path d="M350.856,306.876c-5.416-4.524-10.056-8.432-12.632-10.836c-7.66-7.152-25.912-27.452-30.008-61.408l-0.828-6.844
			c-4.288-36.456-7.192-61.616-19.04-66.48V118.96v-0.004c0-0.004,0-0.004,0-0.008c0-0.74-0.032-2.12-0.14-3.928
			c-0.008-0.092,0.004-0.188-0.004-0.284C286.812,92.34,277.108,0.008,252.764,0c-26.416,0.012-35.516,109.324-35.516,118.96v42.256
			c-11.848,4.68-14.836,30.092-19.184,66.932l-0.708,6.492c-4.096,33.96-22.324,54.252-29.984,61.408
			c-2.532,2.36-7.22,6.168-12.468,10.58c-30.332,25.468-60.108,51.656-60.108,67.336v36.68c0,2,1.48,3.688,3.472,3.92l103.18,12.072
			v11.608c0,1.048,0.608,2.148,1.348,2.892c0.74,0.744,1.936,1.256,2.984,1.256h7.88l3.32,32.084c0.208,2.016,1.904,3.46,3.928,3.46
			h20.036v15.796c0,6.544,5.304,11.852,11.848,11.852s11.852-5.308,11.852-11.852v-15.796h19.972c2.02,0,3.72-1.448,3.924-3.46
			l3.324-32.084h8.42c1.048,0,2.004-0.512,2.744-1.252c0.744-0.74,1.112-1.84,1.112-2.888v-11.608l103.168-11.872
			c1.996-0.232,3.48-1.916,3.48-3.924v-36.884C410.796,358.348,381.216,332.26,350.856,306.876z"/>
	</g>
</g>
<g>
</g>
<g>
</g>
<g>
</g>
<g>
</g>
<g>
</g>
<g>
</g>
<g>
</g>
<g>
</g>
<g>
</g>
<g>
</g>
<g>
</g>
<g>
</g>
<g>
</g>
<g>
</g>
<g>
</g>
</svg>
